<svg id="Layer_1" data-name="Layer 1" xmlns="http://www.w3.org/2000/svg" viewBox="0 0 1917.36 1548.58" style="width: 100%; height: 100%;"><defs><style>.cls-1,.cls-2{fill:#231f20;}.cls-2{stroke:#231f20;stroke-miterlimit:10;}</style></defs><title>c</title><path class="cls-1" d="M1305.14,1095.38,1155.76,952.23c-89.33,108.49-219.81,219.83-375.1,219.83-208.46,0-355.24-174.43-355.24-397.78V770c0-217,146.78-393.53,355.24-393.53,92.92,0,166.85,28.93,230.63,78.55a331.39,331.39,0,0,1,404.8-144l.58-.46C1284.79,127.62,1089.11,0,784.91,0,334,0,0,340.34,0,774.28v4.26c0,444.57,342.46,770,767.9,770,328,0,517.1-141.07,657.25-333.17q1.1-1.46,2.16-2.94Z" style="fill: rgb(255, 255, 255);"></path><path class="cls-2" d="M1916.86,619.13a252,252,0,0,1-74,178.75L1832.74,808l-357.5,357.5L1107.66,797.88c-98.73-98.73-98.73-258.79,0-357.5a252.77,252.77,0,0,1,357.5,0l10.08,10.07,10.08-10.07c98.72-98.73,258.79-98.73,357.5,0A252,252,0,0,1,1916.86,619.13Z" style="fill: rgb(255, 0, 0);"></path></svg>