<?xml version="1.0" encoding="utf-8"?>
<!-- Generator: Adobe Illustrator 23.0.3, SVG Export Plug-In . SVG Version: 6.00 Build 0)  -->
<svg version="1.1" id="Layer_1" xmlns="http://www.w3.org/2000/svg" xmlns:xlink="http://www.w3.org/1999/xlink" x="0px" y="0px"
	 viewBox="0 0 1901.4 1548.6" style="enable-background:new 0 0 1901.4 1548.6;" xml:space="preserve">
<style type="text/css">
	.st0{fill:#131313;}
	.st1{fill:#B72729;}
</style>
<g>
	<path class="st0" d="M1305.1,1095.4l-149.4-143.1c-89.3,108.5-219.8,219.8-375.1,219.8c-208.5,0-355.2-174.4-355.2-397.8V770
		c0-217,146.8-393.5,355.2-393.5c92.9,0,166.9,28.9,230.6,78.6c14.2-24.6,31.8-47.7,52.8-68.8c64.6-64.6,149.3-96.9,234-96.9
		c40,0,80.1,7.2,118,21.7l0.6-0.5C1284.8,127.6,1089.1,0,784.9,0C334,0,0,340.3,0,774.3v4.3c0,444.6,342.5,770,767.9,770
		c328,0,517.1-141.1,657.2-333.2c0.7-1,1.4-2,2.2-2.9L1305.1,1095.4z"/>
</g>
<path class="st1" d="M1900.9,646.5c0,56.3-21.5,112.6-64.5,155.6l-8.8,8.8l-311.2,311.2l-320-320c-85.9-85.9-85.9-225.3,0-311.2
	c43-43,99.3-64.5,155.6-64.5c56.3,0,112.6,21.5,155.6,64.5l8.8,8.8l8.8-8.8c85.9-85.9,225.3-85.9,311.2,0
	C1879.4,533.9,1900.9,590.2,1900.9,646.5z"/>
</svg>
